<svg width="3800" height="1581" xmlns="http://www.w3.org/2000/svg" xmlns:xlink="http://www.w3.org/1999/xlink" xml:space="preserve" overflow="hidden"><g transform="translate(-302 -641)"><g><rect x="2542.5" y="650.5" width="1556" height="1569" stroke="#172C51" stroke-width="4.58333" stroke-linecap="butt" stroke-linejoin="miter" stroke-miterlimit="8" stroke-opacity="1" fill="#D9D9D9" fill-opacity="1"/><text fill="#000000" fill-opacity="1" font-family="Calibri,Calibri_MSFontService,sans-serif" font-style="normal" font-variant="normal" font-weight="400" font-stretch="normal" font-size="73" text-anchor="start" direction="ltr" writing-mode="lr-tb" unicode-bidi="normal" text-decoration="none" transform="matrix(1 0 0 1 3085.1 739)">Stimulus Server</text><path d="M2592.5 1950.33C2592.5 1928.89 2609.89 1911.5 2631.33 1911.5L2862.67 1911.5C2884.11 1911.5 2901.5 1928.89 2901.5 1950.33L2901.5 2105.67C2901.5 2127.11 2884.11 2144.5 2862.67 2144.5L2631.33 2144.5C2609.89 2144.5 2592.5 2127.11 2592.5 2105.67Z" stroke="#223F59" stroke-width="4.58333" stroke-linecap="butt" stroke-linejoin="miter" stroke-miterlimit="8" stroke-opacity="1" fill="#2F5597" fill-rule="evenodd" fill-opacity="1"/><text fill="#FFFFFF" fill-opacity="1" font-family="Calibri,Calibri_MSFontService,sans-serif" font-style="normal" font-variant="normal" font-weight="400" font-stretch="normal" font-size="64" text-anchor="start" direction="ltr" writing-mode="lr-tb" unicode-bidi="normal" text-decoration="none" transform="matrix(1 0 0 1 2668.27 2011)">Visual </text><text fill="#FFFFFF" fill-opacity="1" font-family="Calibri,Calibri_MSFontService,sans-serif" font-style="normal" font-variant="normal" font-weight="400" font-stretch="normal" font-size="64" text-anchor="start" direction="ltr" writing-mode="lr-tb" unicode-bidi="normal" text-decoration="none" transform="matrix(1 0 0 1 2690.38 2088)">stim</text><path d="M2742.5 857.334C2742.5 835.887 2759.89 818.5 2781.33 818.5L3137.67 818.5C3159.11 818.5 3176.5 835.887 3176.5 857.334L3176.5 1012.67C3176.5 1034.11 3159.11 1051.5 3137.67 1051.5L2781.33 1051.5C2759.89 1051.5 2742.5 1034.11 2742.5 1012.67Z" stroke="#172C51" stroke-width="4.58333" stroke-linecap="butt" stroke-linejoin="miter" stroke-miterlimit="8" stroke-opacity="1" fill="#385723" fill-rule="evenodd" fill-opacity="1"/><text fill="#FFFFFF" fill-opacity="1" font-family="Calibri,Calibri_MSFontService,sans-serif" font-style="normal" font-variant="normal" font-weight="400" font-stretch="normal" font-size="64" text-anchor="start" direction="ltr" writing-mode="lr-tb" unicode-bidi="normal" text-decoration="none" transform="matrix(1 0 0 1 2803.98 956)">Locomotion</text><path d="M3730.5 1923.33C3730.5 1901.89 3747.89 1884.5 3769.33 1884.5L4007.67 1884.5C4029.11 1884.5 4046.5 1901.89 4046.5 1923.33L4046.5 2078.67C4046.5 2100.11 4029.11 2117.5 4007.67 2117.5L3769.33 2117.5C3747.89 2117.5 3730.5 2100.11 3730.5 2078.67Z" stroke="#172C51" stroke-width="4.58333" stroke-linecap="butt" stroke-linejoin="miter" stroke-miterlimit="8" stroke-opacity="1" fill="#ED7D31" fill-rule="evenodd" fill-opacity="1"/><text fill="#FFFFFF" fill-opacity="1" font-family="Calibri,Calibri_MSFontService,sans-serif" font-style="normal" font-variant="normal" font-weight="400" font-stretch="normal" font-size="55" text-anchor="start" direction="ltr" writing-mode="lr-tb" unicode-bidi="normal" text-decoration="none" transform="matrix(1 0 0 1 3823.03 1985)">Other</text><text fill="#FFFFFF" fill-opacity="1" font-family="Calibri,Calibri_MSFontService,sans-serif" font-style="normal" font-variant="normal" font-weight="400" font-stretch="normal" font-size="55" text-anchor="start" direction="ltr" writing-mode="lr-tb" unicode-bidi="normal" text-decoration="none" transform="matrix(1 0 0 1 3791.8 2051)">modules</text><path d="M3719.5 1938.33C3719.5 1916.89 3736.89 1899.5 3758.33 1899.5L3996.67 1899.5C4018.11 1899.5 4035.5 1916.89 4035.5 1938.33L4035.5 2093.67C4035.5 2115.11 4018.11 2132.5 3996.67 2132.5L3758.33 2132.5C3736.89 2132.5 3719.5 2115.11 3719.5 2093.67Z" stroke="#172C51" stroke-width="4.58333" stroke-linecap="butt" stroke-linejoin="miter" stroke-miterlimit="8" stroke-opacity="1" fill="#FFC000" fill-rule="evenodd" fill-opacity="1"/><text fill="#FFFFFF" fill-opacity="1" font-family="Calibri,Calibri_MSFontService,sans-serif" font-style="normal" font-variant="normal" font-weight="400" font-stretch="normal" font-size="55" text-anchor="start" direction="ltr" writing-mode="lr-tb" unicode-bidi="normal" text-decoration="none" transform="matrix(1 0 0 1 3812.13 2000)">Other</text><text fill="#FFFFFF" fill-opacity="1" font-family="Calibri,Calibri_MSFontService,sans-serif" font-style="normal" font-variant="normal" font-weight="400" font-stretch="normal" font-size="55" text-anchor="start" direction="ltr" writing-mode="lr-tb" unicode-bidi="normal" text-decoration="none" transform="matrix(1 0 0 1 3780.89 2066)">modules</text><path d="M3702.5 1953.33C3702.5 1931.89 3719.89 1914.5 3741.33 1914.5L3980.67 1914.5C4002.11 1914.5 4019.5 1931.89 4019.5 1953.33L4019.5 2108.67C4019.5 2130.11 4002.11 2147.5 3980.67 2147.5L3741.33 2147.5C3719.89 2147.5 3702.5 2130.11 3702.5 2108.67Z" stroke="#172C51" stroke-width="4.58333" stroke-linecap="butt" stroke-linejoin="miter" stroke-miterlimit="8" stroke-opacity="1" fill="#5B96FF" fill-rule="evenodd" fill-opacity="1"/><text fill="#FFFFFF" fill-opacity="1" font-family="Calibri,Calibri_MSFontService,sans-serif" font-style="normal" font-variant="normal" font-weight="400" font-stretch="normal" font-size="64" text-anchor="start" direction="ltr" writing-mode="lr-tb" unicode-bidi="normal" text-decoration="none" transform="matrix(1 0 0 1 3790.07 2014)">Other </text><text fill="#FFFFFF" fill-opacity="1" font-family="Calibri,Calibri_MSFontService,sans-serif" font-style="normal" font-variant="normal" font-weight="400" font-stretch="normal" font-size="64" text-anchor="start" direction="ltr" writing-mode="lr-tb" unicode-bidi="normal" text-decoration="none" transform="matrix(1 0 0 1 3766.58 2091)">outputs</text><path d="M2932.5 1350C2932.5 1318.8 2957.8 1293.5 2989 1293.5L3653 1293.5C3684.2 1293.5 3709.5 1318.8 3709.5 1350L3709.5 1576C3709.5 1607.2 3684.2 1632.5 3653 1632.5L2989 1632.5C2957.8 1632.5 2932.5 1607.2 2932.5 1576Z" stroke="#172C51" stroke-width="4.58333" stroke-linecap="butt" stroke-linejoin="miter" stroke-miterlimit="8" stroke-opacity="1" fill="#A6A6A6" fill-rule="evenodd" fill-opacity="1"/><text fill="#000000" fill-opacity="1" font-family="Calibri,Calibri_MSFontService,sans-serif" font-style="normal" font-variant="normal" font-weight="400" font-stretch="normal" font-size="64" text-anchor="start" direction="ltr" writing-mode="lr-tb" unicode-bidi="normal" text-decoration="none" transform="matrix(1 0 0 1 3152.36 1484)">Subject state</text><path d="M2968.5 1061.06 3120.91 1206.74 3101.91 1226.62 2949.5 1080.94ZM3129.97 1177.36 3161.11 1264.18 3072.97 1237Z" fill="#000000" fill-rule="nonzero" fill-opacity="1"/><path d="M12.3331-6.07916 79.1538 129.484 54.4876 141.642-12.3331 6.07916ZM97.741 104.992 97.2165 197.229 23.7421 141.467Z" fill="#000000" fill-rule="nonzero" fill-opacity="1" transform="matrix(-1 0 0 1 3216.22 1676)"/><path d="M8.77599-10.5851 208.357 154.885 190.805 176.055-8.77599 10.5851ZM215.324 124.939 252.506 209.35 162.668 188.449Z" fill="#000000" fill-rule="nonzero" fill-opacity="1" transform="matrix(-1 0 0 1 3061.51 1664)"/><path d="M3564.35 1655.07 3765.54 1808.76 3748.84 1830.62 3547.65 1676.93ZM3771.3 1778.56 3811.82 1861.43 3721.22 1844.12Z" fill="#000000" fill-rule="nonzero" fill-opacity="1"/><path d="M3444.5 835.501C3444.5 813.961 3461.96 796.5 3483.5 796.5L3839.5 796.5C3861.04 796.5 3878.5 813.961 3878.5 835.501L3878.5 991.499C3878.5 1013.04 3861.04 1030.5 3839.5 1030.5L3483.5 1030.5C3461.96 1030.5 3444.5 1013.04 3444.5 991.499Z" stroke="#172C51" stroke-width="4.58333" stroke-linecap="butt" stroke-linejoin="miter" stroke-miterlimit="8" stroke-opacity="1" fill="#203864" fill-rule="evenodd" fill-opacity="1"/><text fill="#FFFFFF" fill-opacity="1" font-family="Calibri,Calibri_MSFontService,sans-serif" font-style="normal" font-variant="normal" font-weight="400" font-stretch="normal" font-size="55" text-anchor="start" direction="ltr" writing-mode="lr-tb" unicode-bidi="normal" text-decoration="none" transform="matrix(1 0 0 1 3531.59 898)">Other input </text><text fill="#FFFFFF" fill-opacity="1" font-family="Calibri,Calibri_MSFontService,sans-serif" font-style="normal" font-variant="normal" font-weight="400" font-stretch="normal" font-size="55" text-anchor="start" direction="ltr" writing-mode="lr-tb" unicode-bidi="normal" text-decoration="none" transform="matrix(1 0 0 1 3565.12 964)">modules</text><path d="M3423.5 852.334C3423.5 830.887 3440.89 813.5 3462.33 813.5L3818.67 813.5C3840.11 813.5 3857.5 830.887 3857.5 852.334L3857.5 1007.67C3857.5 1029.11 3840.11 1046.5 3818.67 1046.5L3462.33 1046.5C3440.89 1046.5 3423.5 1029.11 3423.5 1007.67Z" stroke="#172C51" stroke-width="4.58333" stroke-linecap="butt" stroke-linejoin="miter" stroke-miterlimit="8" stroke-opacity="1" fill="#7F6000" fill-rule="evenodd" fill-opacity="1"/><text fill="#FFFFFF" fill-opacity="1" font-family="Calibri,Calibri_MSFontService,sans-serif" font-style="normal" font-variant="normal" font-weight="400" font-stretch="normal" font-size="55" text-anchor="start" direction="ltr" writing-mode="lr-tb" unicode-bidi="normal" text-decoration="none" transform="matrix(1 0 0 1 3510.49 915)">Other input </text><text fill="#FFFFFF" fill-opacity="1" font-family="Calibri,Calibri_MSFontService,sans-serif" font-style="normal" font-variant="normal" font-weight="400" font-stretch="normal" font-size="55" text-anchor="start" direction="ltr" writing-mode="lr-tb" unicode-bidi="normal" text-decoration="none" transform="matrix(1 0 0 1 3544.01 981)">modules</text><path d="M3402.5 868.501C3402.5 846.961 3419.96 829.5 3441.5 829.5L3797.5 829.5C3819.04 829.5 3836.5 846.961 3836.5 868.501L3836.5 1024.5C3836.5 1046.04 3819.04 1063.5 3797.5 1063.5L3441.5 1063.5C3419.96 1063.5 3402.5 1046.04 3402.5 1024.5Z" stroke="#172C51" stroke-width="4.58333" stroke-linecap="butt" stroke-linejoin="miter" stroke-miterlimit="8" stroke-opacity="1" fill="#C55A11" fill-rule="evenodd" fill-opacity="1"/><text fill="#FFFFFF" fill-opacity="1" font-family="Calibri,Calibri_MSFontService,sans-serif" font-style="normal" font-variant="normal" font-weight="400" font-stretch="normal" font-size="64" text-anchor="start" direction="ltr" writing-mode="lr-tb" unicode-bidi="normal" text-decoration="none" transform="matrix(1 0 0 1 3454.14 968)">Other inputs</text><path d="M9.35781-10.0744 154.836 125.056 136.121 145.205-9.35781 10.0744ZM163.477 95.5493 195.851 181.919 107.331 155.996Z" fill="#000000" fill-rule="nonzero" fill-opacity="1" transform="matrix(-1 0 0 1 3618.85 1082)"/><rect x="305.5" y="650.5" width="1555" height="1569" stroke="#172C51" stroke-width="4.58333" stroke-linecap="butt" stroke-linejoin="miter" stroke-miterlimit="8" stroke-opacity="1" fill="#D9D9D9" fill-opacity="1"/><text fill="#000000" fill-opacity="1" font-family="Calibri,Calibri_MSFontService,sans-serif" font-style="normal" font-variant="normal" font-weight="400" font-stretch="normal" font-size="73" text-anchor="start" direction="ltr" writing-mode="lr-tb" unicode-bidi="normal" text-decoration="none" transform="matrix(1 0 0 1 850.635 737)">Your Protocol</text><path d="M507.5 1076C507.5 1066.33 515.335 1058.5 525 1058.5L1532 1058.5C1541.67 1058.5 1549.5 1066.33 1549.5 1076L1549.5 1146C1549.5 1155.67 1541.67 1163.5 1532 1163.5L525 1163.5C515.335 1163.5 507.5 1155.67 507.5 1146Z" stroke="#223F59" stroke-width="4.58333" stroke-linecap="butt" stroke-linejoin="miter" stroke-miterlimit="8" stroke-opacity="1" fill="#2F5597" fill-rule="evenodd" fill-opacity="1"/><text fill="#FFFFFF" fill-opacity="1" font-family="Calibri,Calibri_MSFontService,sans-serif" font-style="normal" font-variant="normal" font-weight="400" font-stretch="normal" font-size="60" text-anchor="start" direction="ltr" writing-mode="lr-tb" unicode-bidi="normal" text-decoration="none" transform="matrix(1 0 0 1 554.467 1131)">(Visual) Show stationary square grating</text><text fill="#000000" fill-opacity="1" font-family="Calibri,Calibri_MSFontService,sans-serif" font-style="normal" font-variant="normal" font-weight="400" font-stretch="normal" font-size="48" text-anchor="start" direction="ltr" writing-mode="lr-tb" unicode-bidi="normal" text-decoration="none" transform="matrix(1 0 0 1 368.477 1124)">1.0 s</text><text fill="#000000" fill-opacity="1" font-family="Calibri,Calibri_MSFontService,sans-serif" font-style="normal" font-variant="normal" font-weight="400" font-stretch="normal" font-size="48" text-anchor="start" direction="ltr" writing-mode="lr-tb" unicode-bidi="normal" text-decoration="none" transform="matrix(1 0 0 1 373.958 968)">0.0 s</text><path d="M507.5 917.833C507.5 908.26 515.26 900.5 524.833 900.5L1531.17 900.5C1540.74 900.5 1548.5 908.26 1548.5 917.833L1548.5 987.167C1548.5 996.74 1540.74 1004.5 1531.17 1004.5L524.833 1004.5C515.26 1004.5 507.5 996.74 507.5 987.167Z" stroke="#223F59" stroke-width="4.58333" stroke-linecap="butt" stroke-linejoin="miter" stroke-miterlimit="8" stroke-opacity="1" fill="#800503" fill-rule="evenodd" fill-opacity="1"/><text fill="#FFFFFF" fill-opacity="1" font-family="Calibri,Calibri_MSFontService,sans-serif" font-style="normal" font-variant="normal" font-weight="400" font-stretch="normal" font-size="60" text-anchor="start" direction="ltr" writing-mode="lr-tb" unicode-bidi="normal" text-decoration="none" transform="matrix(1 0 0 1 684.529 973)">(V Out) Start 50Hz </text><text fill="#FFFFFF" fill-opacity="1" font-family="Calibri,Calibri_MSFontService,sans-serif" font-style="normal" font-variant="normal" font-weight="400" font-stretch="normal" font-size="60" text-anchor="start" direction="ltr" writing-mode="lr-tb" unicode-bidi="normal" text-decoration="none" transform="matrix(1 0 0 1 1138.69 973)">opto</text><text fill="#FFFFFF" fill-opacity="1" font-family="Calibri,Calibri_MSFontService,sans-serif" font-style="normal" font-variant="normal" font-weight="400" font-stretch="normal" font-size="60" text-anchor="start" direction="ltr" writing-mode="lr-tb" unicode-bidi="normal" text-decoration="none" transform="matrix(1 0 0 1 1266.2 973)">stim</text><path d="M505.5 1538.83C505.5 1529.26 513.261 1521.5 522.834 1521.5L1530.17 1521.5C1539.74 1521.5 1547.5 1529.26 1547.5 1538.83L1547.5 1608.17C1547.5 1617.74 1539.74 1625.5 1530.17 1625.5L522.834 1625.5C513.261 1625.5 505.5 1617.74 505.5 1608.17Z" stroke="#223F59" stroke-width="4.58333" stroke-linecap="butt" stroke-linejoin="miter" stroke-miterlimit="8" stroke-opacity="1" fill="#70AD47" fill-rule="evenodd" fill-opacity="1"/><text fill="#FFFFFF" fill-opacity="1" font-family="Calibri,Calibri_MSFontService,sans-serif" font-style="normal" font-variant="normal" font-weight="400" font-stretch="normal" font-size="60" text-anchor="start" direction="ltr" writing-mode="lr-tb" unicode-bidi="normal" text-decoration="none" transform="matrix(1 0 0 1 657.779 1593)">(Audio) </text><text fill="#FFFFFF" fill-opacity="1" font-family="Calibri,Calibri_MSFontService,sans-serif" font-style="normal" font-variant="normal" font-weight="400" font-stretch="normal" font-size="60" text-anchor="start" direction="ltr" writing-mode="lr-tb" unicode-bidi="normal" text-decoration="none" transform="matrix(1 0 0 1 850.851 1593)">Play fly courtship song</text><text fill="#000000" fill-opacity="1" font-family="Calibri,Calibri_MSFontService,sans-serif" font-style="normal" font-variant="normal" font-weight="400" font-stretch="normal" font-size="48" text-anchor="start" direction="ltr" writing-mode="lr-tb" unicode-bidi="normal" text-decoration="none" transform="matrix(1 0 0 1 368.477 1592)">3.0 s</text><text fill="#000000" fill-opacity="1" font-family="Calibri,Calibri_MSFontService,sans-serif" font-style="normal" font-variant="normal" font-weight="400" font-stretch="normal" font-size="92" text-anchor="start" direction="ltr" writing-mode="lr-tb" unicode-bidi="normal" text-decoration="none" transform="matrix(6.12323e-17 1 -1 6.12323e-17 1030.52 1743)">...</text><path d="M3.49119e-05-13.75 73.3868-13.7498 73.3867 13.7502-3.49119e-05 13.75ZM59.6369-41.2498 142.137 0.000360892 59.6366 41.2502Z" fill="#000000" fill-rule="nonzero" fill-opacity="1" transform="matrix(-1 0 0 1 1755.14 948)"/><path d="M1742 937 1742 1975.32" stroke="#000000" stroke-width="27.5" stroke-linecap="butt" stroke-linejoin="miter" stroke-miterlimit="8" stroke-opacity="1" fill="none" fill-rule="evenodd"/><path d="M0 0 151.91 1.93763" stroke="#000000" stroke-width="27.5" stroke-linecap="butt" stroke-linejoin="miter" stroke-miterlimit="8" stroke-opacity="1" fill="none" fill-rule="evenodd" transform="matrix(-1 0 0 1 1754.91 1965)"/><text fill="#000000" fill-opacity="1" font-family="Calibri,Calibri_MSFontService,sans-serif" font-style="normal" font-variant="normal" font-weight="400" font-stretch="normal" font-size="64" text-anchor="start" direction="ltr" writing-mode="lr-tb" unicode-bidi="normal" text-decoration="none" transform="matrix(-1.83697e-16 -1 1 -1.83697e-16 1669.07 1854)">Different stimulus parameters</text><path d="M1976 1304.25 2265.04 1304.25 2265.04 1331.75 1976 1331.75ZM2251.29 1276.75 2333.79 1318 2251.29 1359.25Z" fill="#000000" fill-rule="nonzero" fill-opacity="1"/><path d="M2023 1423.25 2312.04 1423.25 2312.04 1450.75 2023 1450.75ZM2298.29 1395.75 2380.79 1437 2298.29 1478.25Z" fill="#000000" fill-rule="nonzero" fill-opacity="1"/><path d="M2071 1537.25 2360.04 1537.25 2360.04 1564.75 2071 1564.75ZM2346.29 1509.75 2428.79 1551 2346.29 1592.25Z" fill="#000000" fill-rule="nonzero" fill-opacity="1"/><path d="M505.5 1935.83C505.5 1926.26 513.261 1918.5 522.834 1918.5L1530.17 1918.5C1539.74 1918.5 1547.5 1926.26 1547.5 1935.83L1547.5 2005.17C1547.5 2014.74 1539.74 2022.5 1530.17 2022.5L522.834 2022.5C513.261 2022.5 505.5 2014.74 505.5 2005.17Z" stroke="#223F59" stroke-width="4.58333" stroke-linecap="butt" stroke-linejoin="miter" stroke-miterlimit="8" stroke-opacity="1" fill="#7F7F7F" fill-rule="evenodd" fill-opacity="1"/><text fill="#FFFFFF" fill-opacity="1" font-family="Calibri,Calibri_MSFontService,sans-serif" font-style="normal" font-variant="normal" font-weight="400" font-stretch="normal" font-size="60" text-anchor="start" direction="ltr" writing-mode="lr-tb" unicode-bidi="normal" text-decoration="none" transform="matrix(1 0 0 1 861.553 1990)">Stop stimulus</text><text fill="#000000" fill-opacity="1" font-family="Calibri,Calibri_MSFontService,sans-serif" font-style="normal" font-variant="normal" font-weight="400" font-stretch="normal" font-size="48" text-anchor="start" direction="ltr" writing-mode="lr-tb" unicode-bidi="normal" text-decoration="none" transform="matrix(1 0 0 1 368.477 1986)">6.0 s</text><path d="M507.5 1378.83C507.5 1369.26 515.26 1361.5 524.833 1361.5L1532.17 1361.5C1541.74 1361.5 1549.5 1369.26 1549.5 1378.83L1549.5 1448.17C1549.5 1457.74 1541.74 1465.5 1532.17 1465.5L524.833 1465.5C515.26 1465.5 507.5 1457.74 507.5 1448.17Z" stroke="#223F59" stroke-width="4.58333" stroke-linecap="butt" stroke-linejoin="miter" stroke-miterlimit="8" stroke-opacity="1" fill="#2F5597" fill-rule="evenodd" fill-opacity="1"/><text fill="#FFFFFF" fill-opacity="1" font-family="Calibri,Calibri_MSFontService,sans-serif" font-style="normal" font-variant="normal" font-weight="400" font-stretch="normal" font-size="60" text-anchor="start" direction="ltr" writing-mode="lr-tb" unicode-bidi="normal" text-decoration="none" transform="matrix(1 0 0 1 682.697 1433)">(Visual) Show moving ellipse</text><text fill="#000000" fill-opacity="1" font-family="Calibri,Calibri_MSFontService,sans-serif" font-style="normal" font-variant="normal" font-weight="400" font-stretch="normal" font-size="48" text-anchor="start" direction="ltr" writing-mode="lr-tb" unicode-bidi="normal" text-decoration="none" transform="matrix(1 0 0 1 368.477 1429)">2.0 s</text><path d="M505.5 1225.83C505.5 1216.26 513.261 1208.5 522.834 1208.5L1530.17 1208.5C1539.74 1208.5 1547.5 1216.26 1547.5 1225.83L1547.5 1295.17C1547.5 1304.74 1539.74 1312.5 1530.17 1312.5L522.834 1312.5C513.261 1312.5 505.5 1304.74 505.5 1295.17Z" stroke="#223F59" stroke-width="4.58333" stroke-linecap="butt" stroke-linejoin="miter" stroke-miterlimit="8" stroke-opacity="1" fill="#385723" fill-rule="evenodd" fill-opacity="1"/><text fill="#FFFFFF" fill-opacity="1" font-family="Calibri,Calibri_MSFontService,sans-serif" font-style="normal" font-variant="normal" font-weight="400" font-stretch="normal" font-size="60" text-anchor="start" direction="ltr" writing-mode="lr-tb" unicode-bidi="normal" text-decoration="none" transform="matrix(1 0 0 1 549.05 1280)">(Loco) Start closed</text><text fill="#FFFFFF" fill-opacity="1" font-family="Calibri,Calibri_MSFontService,sans-serif" font-style="normal" font-variant="normal" font-weight="400" font-stretch="normal" font-size="60" text-anchor="start" direction="ltr" writing-mode="lr-tb" unicode-bidi="normal" text-decoration="none" transform="matrix(1 0 0 1 988.844 1280)">-</text><text fill="#FFFFFF" fill-opacity="1" font-family="Calibri,Calibri_MSFontService,sans-serif" font-style="normal" font-variant="normal" font-weight="400" font-stretch="normal" font-size="60" text-anchor="start" direction="ltr" writing-mode="lr-tb" unicode-bidi="normal" text-decoration="none" transform="matrix(1 0 0 1 1006.72 1280)">loop position update</text><text fill="#000000" fill-opacity="1" font-family="Calibri,Calibri_MSFontService,sans-serif" font-style="normal" font-variant="normal" font-weight="400" font-stretch="normal" font-size="48" text-anchor="start" direction="ltr" writing-mode="lr-tb" unicode-bidi="normal" text-decoration="none" transform="matrix(1 0 0 1 366.118 1277)">1.0 s</text><path d="M3344.5 1950.33C3344.5 1928.89 3361.89 1911.5 3383.33 1911.5L3613.67 1911.5C3635.11 1911.5 3652.5 1928.89 3652.5 1950.33L3652.5 2105.67C3652.5 2127.11 3635.11 2144.5 3613.67 2144.5L3383.33 2144.5C3361.89 2144.5 3344.5 2127.11 3344.5 2105.67Z" stroke="#172C51" stroke-width="4.58333" stroke-linecap="butt" stroke-linejoin="miter" stroke-miterlimit="8" stroke-opacity="1" fill="#800503" fill-rule="evenodd" fill-opacity="1"/><text fill="#FFFFFF" fill-opacity="1" font-family="Calibri,Calibri_MSFontService,sans-serif" font-style="normal" font-variant="normal" font-weight="400" font-stretch="normal" font-size="64" text-anchor="start" direction="ltr" writing-mode="lr-tb" unicode-bidi="normal" text-decoration="none" transform="matrix(1 0 0 1 3399.68 2011)">Voltage </text><text fill="#FFFFFF" fill-opacity="1" font-family="Calibri,Calibri_MSFontService,sans-serif" font-style="normal" font-variant="normal" font-weight="400" font-stretch="normal" font-size="64" text-anchor="start" direction="ltr" writing-mode="lr-tb" unicode-bidi="normal" text-decoration="none" transform="matrix(1 0 0 1 3453.24 2088)">out</text><path d="M2965.5 1949.5C2965.5 1927.96 2982.96 1910.5 3004.5 1910.5L3235.5 1910.5C3257.04 1910.5 3274.5 1927.96 3274.5 1949.5L3274.5 2105.5C3274.5 2127.04 3257.04 2144.5 3235.5 2144.5L3004.5 2144.5C2982.96 2144.5 2965.5 2127.04 2965.5 2105.5Z" stroke="#223F59" stroke-width="4.58333" stroke-linecap="butt" stroke-linejoin="miter" stroke-miterlimit="8" stroke-opacity="1" fill="#70AD47" fill-rule="evenodd" fill-opacity="1"/><text fill="#FFFFFF" fill-opacity="1" font-family="Calibri,Calibri_MSFontService,sans-serif" font-style="normal" font-variant="normal" font-weight="400" font-stretch="normal" font-size="64" text-anchor="start" direction="ltr" writing-mode="lr-tb" unicode-bidi="normal" text-decoration="none" transform="matrix(1 0 0 1 3042.59 2010)">Audio </text><text fill="#FFFFFF" fill-opacity="1" font-family="Calibri,Calibri_MSFontService,sans-serif" font-style="normal" font-variant="normal" font-weight="400" font-stretch="normal" font-size="64" text-anchor="start" direction="ltr" writing-mode="lr-tb" unicode-bidi="normal" text-decoration="none" transform="matrix(1 0 0 1 3063.28 2087)">stim</text><path d="M3388.88 1669.08 3469.18 1806.9 3445.42 1820.75 3365.12 1682.92ZM3486.02 1781.18 3491.91 1873.23 3414.73 1822.71Z" fill="#000000" fill-rule="nonzero" fill-opacity="1"/></g></g></svg>